<mxfile host="app.diagrams.net" modified="2024-05-29T12:23:20.681Z" agent="Mozilla/5.0 (Windows NT 10.0; Win64; x64) AppleWebKit/537.36 (KHTML, like Gecko) Chrome/124.0.0.0 Safari/537.36" etag="PU1bdkRmS7KPbcTxsK3r" version="24.4.9" type="device">
  <diagram name="Страница — 1" id="YhrrZ4cfhPcFE-EXpCyy">
    <mxGraphModel dx="1843" dy="2007" grid="1" gridSize="10" guides="1" tooltips="1" connect="1" arrows="1" fold="1" page="1" pageScale="1" pageWidth="1920" pageHeight="1200" math="0" shadow="0">
      <root>
        <mxCell id="0" />
        <mxCell id="1" parent="0" />
        <mxCell id="ITvwThroH8d0HxM4oLfK-7" style="edgeStyle=orthogonalEdgeStyle;rounded=0;orthogonalLoop=1;jettySize=auto;html=1;" parent="1" edge="1">
          <mxGeometry relative="1" as="geometry">
            <mxPoint x="619.9999999999995" y="325.0000000000002" as="sourcePoint" />
            <mxPoint x="740" y="400" as="targetPoint" />
          </mxGeometry>
        </mxCell>
        <mxCell id="ITvwThroH8d0HxM4oLfK-12" style="edgeStyle=orthogonalEdgeStyle;rounded=0;orthogonalLoop=1;jettySize=auto;html=1;entryX=1;entryY=0.5;entryDx=0;entryDy=0;exitX=1;exitY=0.5;exitDx=0;exitDy=0;" parent="1" edge="1">
          <mxGeometry relative="1" as="geometry">
            <mxPoint x="600" y="230" as="targetPoint" />
            <mxPoint x="800" y="430" as="sourcePoint" />
          </mxGeometry>
        </mxCell>
        <mxCell id="V_xzua2RGYSJXvP4pe6H-9" style="edgeStyle=orthogonalEdgeStyle;rounded=0;orthogonalLoop=1;jettySize=auto;html=1;" parent="1" source="V_xzua2RGYSJXvP4pe6H-1" target="V_xzua2RGYSJXvP4pe6H-2" edge="1">
          <mxGeometry relative="1" as="geometry" />
        </mxCell>
        <mxCell id="V_xzua2RGYSJXvP4pe6H-1" value="&lt;font style=&quot;vertical-align: inherit;&quot;&gt;&lt;font style=&quot;vertical-align: inherit;&quot;&gt;Начало&lt;/font&gt;&lt;/font&gt;" style="rounded=1;whiteSpace=wrap;html=1;arcSize=50;" parent="1" vertex="1">
          <mxGeometry x="1240" y="-110" width="120" height="40" as="geometry" />
        </mxCell>
        <mxCell id="0SiCnP_SjPk9k29kW3kz-3" style="edgeStyle=orthogonalEdgeStyle;rounded=0;orthogonalLoop=1;jettySize=auto;html=1;" edge="1" parent="1" source="V_xzua2RGYSJXvP4pe6H-2" target="0SiCnP_SjPk9k29kW3kz-1">
          <mxGeometry relative="1" as="geometry" />
        </mxCell>
        <mxCell id="V_xzua2RGYSJXvP4pe6H-2" value="Нажать на кнопку регистрации" style="rounded=0;whiteSpace=wrap;html=1;" parent="1" vertex="1">
          <mxGeometry x="1240" y="-10" width="120" height="60" as="geometry" />
        </mxCell>
        <mxCell id="V_xzua2RGYSJXvP4pe6H-12" style="edgeStyle=orthogonalEdgeStyle;rounded=0;orthogonalLoop=1;jettySize=auto;html=1;exitX=0;exitY=0.5;exitDx=0;exitDy=0;" parent="1" source="V_xzua2RGYSJXvP4pe6H-3" target="V_xzua2RGYSJXvP4pe6H-8" edge="1">
          <mxGeometry relative="1" as="geometry" />
        </mxCell>
        <mxCell id="V_xzua2RGYSJXvP4pe6H-14" value="Да" style="edgeLabel;html=1;align=center;verticalAlign=middle;resizable=0;points=[];" parent="V_xzua2RGYSJXvP4pe6H-12" vertex="1" connectable="0">
          <mxGeometry x="-0.4095" y="-1" relative="1" as="geometry">
            <mxPoint as="offset" />
          </mxGeometry>
        </mxCell>
        <mxCell id="V_xzua2RGYSJXvP4pe6H-27" style="edgeStyle=orthogonalEdgeStyle;rounded=0;orthogonalLoop=1;jettySize=auto;html=1;entryX=0.5;entryY=0;entryDx=0;entryDy=0;" parent="1" source="V_xzua2RGYSJXvP4pe6H-3" target="V_xzua2RGYSJXvP4pe6H-6" edge="1">
          <mxGeometry relative="1" as="geometry" />
        </mxCell>
        <mxCell id="V_xzua2RGYSJXvP4pe6H-28" value="Нет" style="edgeLabel;html=1;align=center;verticalAlign=middle;resizable=0;points=[];" parent="V_xzua2RGYSJXvP4pe6H-27" vertex="1" connectable="0">
          <mxGeometry x="-0.1726" relative="1" as="geometry">
            <mxPoint as="offset" />
          </mxGeometry>
        </mxCell>
        <mxCell id="V_xzua2RGYSJXvP4pe6H-3" value="Заполнены поля ?" style="rhombus;whiteSpace=wrap;html=1;" parent="1" vertex="1">
          <mxGeometry x="1205" y="240" width="190" height="80" as="geometry" />
        </mxCell>
        <mxCell id="V_xzua2RGYSJXvP4pe6H-6" value="Alert (Заполните все поля)" style="rounded=0;whiteSpace=wrap;html=1;" parent="1" vertex="1">
          <mxGeometry x="1500" y="340" width="120" height="60" as="geometry" />
        </mxCell>
        <mxCell id="V_xzua2RGYSJXvP4pe6H-20" style="edgeStyle=orthogonalEdgeStyle;rounded=0;orthogonalLoop=1;jettySize=auto;html=1;entryX=0.5;entryY=0;entryDx=0;entryDy=0;" parent="1" source="V_xzua2RGYSJXvP4pe6H-8" target="V_xzua2RGYSJXvP4pe6H-18" edge="1">
          <mxGeometry relative="1" as="geometry" />
        </mxCell>
        <mxCell id="V_xzua2RGYSJXvP4pe6H-23" value="Нет" style="edgeLabel;html=1;align=center;verticalAlign=middle;resizable=0;points=[];" parent="V_xzua2RGYSJXvP4pe6H-20" vertex="1" connectable="0">
          <mxGeometry x="-0.2346" y="3" relative="1" as="geometry">
            <mxPoint as="offset" />
          </mxGeometry>
        </mxCell>
        <mxCell id="V_xzua2RGYSJXvP4pe6H-21" style="edgeStyle=orthogonalEdgeStyle;rounded=0;orthogonalLoop=1;jettySize=auto;html=1;entryX=0.5;entryY=0;entryDx=0;entryDy=0;" parent="1" source="V_xzua2RGYSJXvP4pe6H-8" target="V_xzua2RGYSJXvP4pe6H-19" edge="1">
          <mxGeometry relative="1" as="geometry" />
        </mxCell>
        <mxCell id="V_xzua2RGYSJXvP4pe6H-22" value="Да" style="edgeLabel;html=1;align=center;verticalAlign=middle;resizable=0;points=[];" parent="V_xzua2RGYSJXvP4pe6H-21" vertex="1" connectable="0">
          <mxGeometry x="-0.4348" y="2" relative="1" as="geometry">
            <mxPoint as="offset" />
          </mxGeometry>
        </mxCell>
        <mxCell id="V_xzua2RGYSJXvP4pe6H-8" value="Пароли совпадают ?" style="rhombus;whiteSpace=wrap;html=1;" parent="1" vertex="1">
          <mxGeometry x="1015" y="360" width="190" height="80" as="geometry" />
        </mxCell>
        <mxCell id="0SiCnP_SjPk9k29kW3kz-5" style="edgeStyle=orthogonalEdgeStyle;rounded=0;orthogonalLoop=1;jettySize=auto;html=1;" edge="1" parent="1">
          <mxGeometry relative="1" as="geometry">
            <mxPoint x="1680" y="370" as="targetPoint" />
            <mxPoint x="1360" y="470" as="sourcePoint" />
          </mxGeometry>
        </mxCell>
        <mxCell id="V_xzua2RGYSJXvP4pe6H-18" value="&lt;font style=&quot;vertical-align: inherit;&quot;&gt;&lt;font style=&quot;vertical-align: inherit;&quot;&gt;Alert(Пороли не случилось)&lt;/font&gt;&lt;/font&gt;" style="rounded=0;whiteSpace=wrap;html=1;" parent="1" vertex="1">
          <mxGeometry x="1240" y="440" width="120" height="60" as="geometry" />
        </mxCell>
        <mxCell id="V_xzua2RGYSJXvP4pe6H-33" style="edgeStyle=orthogonalEdgeStyle;rounded=0;orthogonalLoop=1;jettySize=auto;html=1;entryX=0;entryY=0.5;entryDx=0;entryDy=0;" parent="1" source="V_xzua2RGYSJXvP4pe6H-19" target="V_xzua2RGYSJXvP4pe6H-32" edge="1">
          <mxGeometry relative="1" as="geometry">
            <Array as="points">
              <mxPoint x="960" y="560" />
            </Array>
          </mxGeometry>
        </mxCell>
        <mxCell id="V_xzua2RGYSJXvP4pe6H-19" value="&lt;font style=&quot;vertical-align: inherit;&quot;&gt;&lt;font style=&quot;vertical-align: inherit;&quot;&gt;Alert(Успех!)&lt;/font&gt;&lt;/font&gt;" style="rounded=0;whiteSpace=wrap;html=1;" parent="1" vertex="1">
          <mxGeometry x="880" y="440" width="120" height="60" as="geometry" />
        </mxCell>
        <mxCell id="V_xzua2RGYSJXvP4pe6H-25" value="&lt;font style=&quot;vertical-align: inherit;&quot;&gt;&lt;font style=&quot;vertical-align: inherit;&quot;&gt;Конец&lt;/font&gt;&lt;/font&gt;" style="rounded=1;whiteSpace=wrap;html=1;arcSize=50;" parent="1" vertex="1">
          <mxGeometry x="1060" y="630" width="120" height="40" as="geometry" />
        </mxCell>
        <mxCell id="V_xzua2RGYSJXvP4pe6H-30" value="" style="endArrow=classic;html=1;rounded=0;exitX=1;exitY=0.5;exitDx=0;exitDy=0;" parent="1" source="V_xzua2RGYSJXvP4pe6H-6" edge="1" target="0SiCnP_SjPk9k29kW3kz-1">
          <mxGeometry width="50" height="50" relative="1" as="geometry">
            <mxPoint x="1500" y="480" as="sourcePoint" />
            <mxPoint x="1300" y="190" as="targetPoint" />
            <Array as="points">
              <mxPoint x="1700" y="370" />
              <mxPoint x="1700" y="120" />
            </Array>
          </mxGeometry>
        </mxCell>
        <mxCell id="V_xzua2RGYSJXvP4pe6H-34" style="edgeStyle=orthogonalEdgeStyle;rounded=0;orthogonalLoop=1;jettySize=auto;html=1;" parent="1" source="V_xzua2RGYSJXvP4pe6H-32" target="V_xzua2RGYSJXvP4pe6H-25" edge="1">
          <mxGeometry relative="1" as="geometry" />
        </mxCell>
        <mxCell id="V_xzua2RGYSJXvP4pe6H-32" value="Закрытие модального окна" style="rounded=0;whiteSpace=wrap;html=1;" parent="1" vertex="1">
          <mxGeometry x="1060" y="530" width="120" height="60" as="geometry" />
        </mxCell>
        <mxCell id="0SiCnP_SjPk9k29kW3kz-4" style="edgeStyle=orthogonalEdgeStyle;rounded=0;orthogonalLoop=1;jettySize=auto;html=1;entryX=0.5;entryY=0;entryDx=0;entryDy=0;" edge="1" parent="1" source="0SiCnP_SjPk9k29kW3kz-1" target="V_xzua2RGYSJXvP4pe6H-3">
          <mxGeometry relative="1" as="geometry" />
        </mxCell>
        <mxCell id="0SiCnP_SjPk9k29kW3kz-1" value="&lt;div&gt;&lt;span style=&quot;background-color: initial;&quot;&gt;&lt;font style=&quot;vertical-align: inherit;&quot;&gt;&lt;font style=&quot;vertical-align: inherit;&quot;&gt;&lt;font style=&quot;vertical-align: inherit;&quot;&gt;&lt;font style=&quot;vertical-align: inherit;&quot;&gt;Заполнение&amp;nbsp;&lt;/font&gt;&lt;/font&gt;&lt;/font&gt;&lt;/font&gt;&lt;/span&gt;&lt;/div&gt;&lt;div&gt;&lt;span style=&quot;background-color: initial;&quot;&gt;&lt;font style=&quot;vertical-align: inherit;&quot;&gt;&lt;font style=&quot;vertical-align: inherit;&quot;&gt;полей&lt;/font&gt;&lt;/font&gt;&lt;/span&gt;&lt;br&gt;&lt;/div&gt;" style="shape=parallelogram;perimeter=parallelogramPerimeter;whiteSpace=wrap;html=1;fixedSize=1;" vertex="1" parent="1">
          <mxGeometry x="1240" y="90" width="120" height="60" as="geometry" />
        </mxCell>
      </root>
    </mxGraphModel>
  </diagram>
</mxfile>
